<mxfile host="app.diagrams.net" agent="Mozilla/5.0 (Windows NT 10.0; Win64; x64; rv:135.0) Gecko/20100101 Firefox/135.0" version="24.9.0">
  <diagram id="C5RBs43oDa-KdzZeNtuy" name="Page-1">
    <mxGraphModel dx="861" dy="655" grid="1" gridSize="10" guides="1" tooltips="1" connect="1" arrows="1" fold="1" page="1" pageScale="1" pageWidth="827" pageHeight="1169" math="0" shadow="0">
      <root>
        <mxCell id="WIyWlLk6GJQsqaUBKTNV-0" />
        <mxCell id="WIyWlLk6GJQsqaUBKTNV-1" parent="WIyWlLk6GJQsqaUBKTNV-0" />
        <mxCell id="EuYJvIRfVf0Awdc-5Psq-35" style="edgeStyle=orthogonalEdgeStyle;rounded=0;orthogonalLoop=1;jettySize=auto;html=1;exitX=0.75;exitY=0;exitDx=0;exitDy=0;entryX=0.75;entryY=1;entryDx=0;entryDy=0;" edge="1" parent="WIyWlLk6GJQsqaUBKTNV-1" source="EuYJvIRfVf0Awdc-5Psq-2" target="EuYJvIRfVf0Awdc-5Psq-3">
          <mxGeometry relative="1" as="geometry" />
        </mxCell>
        <mxCell id="EuYJvIRfVf0Awdc-5Psq-2" value="&lt;div&gt;file_reader&lt;/div&gt;" style="rounded=0;whiteSpace=wrap;html=1;" vertex="1" parent="WIyWlLk6GJQsqaUBKTNV-1">
          <mxGeometry x="200" y="320" width="120" height="60" as="geometry" />
        </mxCell>
        <mxCell id="EuYJvIRfVf0Awdc-5Psq-23" style="edgeStyle=orthogonalEdgeStyle;rounded=0;orthogonalLoop=1;jettySize=auto;html=1;exitX=0.25;exitY=1;exitDx=0;exitDy=0;entryX=0.5;entryY=0;entryDx=0;entryDy=0;" edge="1" parent="WIyWlLk6GJQsqaUBKTNV-1" source="EuYJvIRfVf0Awdc-5Psq-3" target="EuYJvIRfVf0Awdc-5Psq-7">
          <mxGeometry relative="1" as="geometry" />
        </mxCell>
        <mxCell id="EuYJvIRfVf0Awdc-5Psq-24" style="edgeStyle=orthogonalEdgeStyle;rounded=0;orthogonalLoop=1;jettySize=auto;html=1;exitX=0.25;exitY=1;exitDx=0;exitDy=0;entryX=0.5;entryY=0;entryDx=0;entryDy=0;" edge="1" parent="WIyWlLk6GJQsqaUBKTNV-1" source="EuYJvIRfVf0Awdc-5Psq-3" target="EuYJvIRfVf0Awdc-5Psq-2">
          <mxGeometry relative="1" as="geometry" />
        </mxCell>
        <mxCell id="EuYJvIRfVf0Awdc-5Psq-25" style="edgeStyle=orthogonalEdgeStyle;rounded=0;orthogonalLoop=1;jettySize=auto;html=1;exitX=0.25;exitY=1;exitDx=0;exitDy=0;entryX=0.5;entryY=0;entryDx=0;entryDy=0;" edge="1" parent="WIyWlLk6GJQsqaUBKTNV-1" source="EuYJvIRfVf0Awdc-5Psq-3" target="EuYJvIRfVf0Awdc-5Psq-8">
          <mxGeometry relative="1" as="geometry" />
        </mxCell>
        <mxCell id="EuYJvIRfVf0Awdc-5Psq-26" style="edgeStyle=orthogonalEdgeStyle;rounded=0;orthogonalLoop=1;jettySize=auto;html=1;exitX=0.25;exitY=1;exitDx=0;exitDy=0;entryX=0.5;entryY=0;entryDx=0;entryDy=0;" edge="1" parent="WIyWlLk6GJQsqaUBKTNV-1" source="EuYJvIRfVf0Awdc-5Psq-3" target="EuYJvIRfVf0Awdc-5Psq-6">
          <mxGeometry relative="1" as="geometry" />
        </mxCell>
        <mxCell id="EuYJvIRfVf0Awdc-5Psq-27" style="edgeStyle=orthogonalEdgeStyle;rounded=0;orthogonalLoop=1;jettySize=auto;html=1;exitX=0.25;exitY=1;exitDx=0;exitDy=0;entryX=0.5;entryY=0;entryDx=0;entryDy=0;" edge="1" parent="WIyWlLk6GJQsqaUBKTNV-1" source="EuYJvIRfVf0Awdc-5Psq-3" target="EuYJvIRfVf0Awdc-5Psq-4">
          <mxGeometry relative="1" as="geometry" />
        </mxCell>
        <mxCell id="EuYJvIRfVf0Awdc-5Psq-28" style="edgeStyle=orthogonalEdgeStyle;rounded=0;orthogonalLoop=1;jettySize=auto;html=1;exitX=0.25;exitY=1;exitDx=0;exitDy=0;" edge="1" parent="WIyWlLk6GJQsqaUBKTNV-1" source="EuYJvIRfVf0Awdc-5Psq-3" target="EuYJvIRfVf0Awdc-5Psq-10">
          <mxGeometry relative="1" as="geometry" />
        </mxCell>
        <mxCell id="EuYJvIRfVf0Awdc-5Psq-30" value="BODB String" style="edgeLabel;html=1;align=center;verticalAlign=middle;resizable=0;points=[];" vertex="1" connectable="0" parent="EuYJvIRfVf0Awdc-5Psq-28">
          <mxGeometry x="-0.8385" y="2" relative="1" as="geometry">
            <mxPoint x="-22" y="-18" as="offset" />
          </mxGeometry>
        </mxCell>
        <mxCell id="EuYJvIRfVf0Awdc-5Psq-39" value="" style="edgeStyle=orthogonalEdgeStyle;rounded=0;orthogonalLoop=1;jettySize=auto;html=1;" edge="1" parent="WIyWlLk6GJQsqaUBKTNV-1" source="EuYJvIRfVf0Awdc-5Psq-3" target="EuYJvIRfVf0Awdc-5Psq-38">
          <mxGeometry relative="1" as="geometry" />
        </mxCell>
        <mxCell id="EuYJvIRfVf0Awdc-5Psq-40" value="&lt;div&gt;Construct&lt;/div&gt;&lt;div&gt;Record&lt;/div&gt;" style="edgeLabel;html=1;align=center;verticalAlign=middle;resizable=0;points=[];" vertex="1" connectable="0" parent="EuYJvIRfVf0Awdc-5Psq-39">
          <mxGeometry x="0.0625" y="1" relative="1" as="geometry">
            <mxPoint as="offset" />
          </mxGeometry>
        </mxCell>
        <mxCell id="EuYJvIRfVf0Awdc-5Psq-3" value="&lt;div&gt;Extractor&lt;/div&gt;" style="rounded=0;whiteSpace=wrap;html=1;" vertex="1" parent="WIyWlLk6GJQsqaUBKTNV-1">
          <mxGeometry x="400" y="180" width="120" height="60" as="geometry" />
        </mxCell>
        <mxCell id="EuYJvIRfVf0Awdc-5Psq-32" style="edgeStyle=orthogonalEdgeStyle;rounded=0;orthogonalLoop=1;jettySize=auto;html=1;exitX=0.75;exitY=0;exitDx=0;exitDy=0;" edge="1" parent="WIyWlLk6GJQsqaUBKTNV-1" source="EuYJvIRfVf0Awdc-5Psq-4">
          <mxGeometry relative="1" as="geometry">
            <mxPoint x="490" y="240" as="targetPoint" />
          </mxGeometry>
        </mxCell>
        <mxCell id="EuYJvIRfVf0Awdc-5Psq-4" value="record_type" style="rounded=0;whiteSpace=wrap;html=1;" vertex="1" parent="WIyWlLk6GJQsqaUBKTNV-1">
          <mxGeometry x="620" y="320" width="120" height="60" as="geometry" />
        </mxCell>
        <mxCell id="EuYJvIRfVf0Awdc-5Psq-33" style="edgeStyle=orthogonalEdgeStyle;rounded=0;orthogonalLoop=1;jettySize=auto;html=1;exitX=0.75;exitY=0;exitDx=0;exitDy=0;entryX=0.75;entryY=1;entryDx=0;entryDy=0;" edge="1" parent="WIyWlLk6GJQsqaUBKTNV-1" source="EuYJvIRfVf0Awdc-5Psq-6" target="EuYJvIRfVf0Awdc-5Psq-3">
          <mxGeometry relative="1" as="geometry" />
        </mxCell>
        <mxCell id="EuYJvIRfVf0Awdc-5Psq-6" value="ticker_conversion" style="rounded=0;whiteSpace=wrap;html=1;" vertex="1" parent="WIyWlLk6GJQsqaUBKTNV-1">
          <mxGeometry x="480" y="320" width="120" height="60" as="geometry" />
        </mxCell>
        <mxCell id="EuYJvIRfVf0Awdc-5Psq-36" style="edgeStyle=orthogonalEdgeStyle;rounded=0;orthogonalLoop=1;jettySize=auto;html=1;exitX=0.75;exitY=0;exitDx=0;exitDy=0;" edge="1" parent="WIyWlLk6GJQsqaUBKTNV-1" source="EuYJvIRfVf0Awdc-5Psq-7">
          <mxGeometry relative="1" as="geometry">
            <mxPoint x="490" y="240" as="targetPoint" />
          </mxGeometry>
        </mxCell>
        <mxCell id="EuYJvIRfVf0Awdc-5Psq-7" value="expiration_month" style="rounded=0;whiteSpace=wrap;html=1;" vertex="1" parent="WIyWlLk6GJQsqaUBKTNV-1">
          <mxGeometry x="60" y="320" width="120" height="60" as="geometry" />
        </mxCell>
        <mxCell id="EuYJvIRfVf0Awdc-5Psq-34" style="edgeStyle=orthogonalEdgeStyle;rounded=0;orthogonalLoop=1;jettySize=auto;html=1;exitX=0.75;exitY=0;exitDx=0;exitDy=0;" edge="1" parent="WIyWlLk6GJQsqaUBKTNV-1" source="EuYJvIRfVf0Awdc-5Psq-8">
          <mxGeometry relative="1" as="geometry">
            <mxPoint x="490" y="240" as="targetPoint" />
          </mxGeometry>
        </mxCell>
        <mxCell id="EuYJvIRfVf0Awdc-5Psq-8" value="date_time" style="rounded=0;whiteSpace=wrap;html=1;" vertex="1" parent="WIyWlLk6GJQsqaUBKTNV-1">
          <mxGeometry x="340" y="320" width="120" height="60" as="geometry" />
        </mxCell>
        <mxCell id="EuYJvIRfVf0Awdc-5Psq-14" style="edgeStyle=orthogonalEdgeStyle;rounded=0;orthogonalLoop=1;jettySize=auto;html=1;exitX=1;exitY=0.5;exitDx=0;exitDy=0;entryX=0;entryY=0.5;entryDx=0;entryDy=0;" edge="1" parent="WIyWlLk6GJQsqaUBKTNV-1" source="EuYJvIRfVf0Awdc-5Psq-9" target="EuYJvIRfVf0Awdc-5Psq-3">
          <mxGeometry relative="1" as="geometry" />
        </mxCell>
        <mxCell id="EuYJvIRfVf0Awdc-5Psq-17" value="config" style="edgeLabel;html=1;align=center;verticalAlign=middle;resizable=0;points=[];" vertex="1" connectable="0" parent="EuYJvIRfVf0Awdc-5Psq-14">
          <mxGeometry x="-0.2571" relative="1" as="geometry">
            <mxPoint x="8" as="offset" />
          </mxGeometry>
        </mxCell>
        <mxCell id="EuYJvIRfVf0Awdc-5Psq-9" value="load" style="rounded=0;whiteSpace=wrap;html=1;" vertex="1" parent="WIyWlLk6GJQsqaUBKTNV-1">
          <mxGeometry x="200" y="180" width="120" height="60" as="geometry" />
        </mxCell>
        <mxCell id="EuYJvIRfVf0Awdc-5Psq-31" style="edgeStyle=orthogonalEdgeStyle;rounded=0;orthogonalLoop=1;jettySize=auto;html=1;exitX=0.75;exitY=0;exitDx=0;exitDy=0;entryX=0.75;entryY=1;entryDx=0;entryDy=0;" edge="1" parent="WIyWlLk6GJQsqaUBKTNV-1" source="EuYJvIRfVf0Awdc-5Psq-10" target="EuYJvIRfVf0Awdc-5Psq-3">
          <mxGeometry relative="1" as="geometry" />
        </mxCell>
        <mxCell id="EuYJvIRfVf0Awdc-5Psq-37" value="Record fields" style="edgeLabel;html=1;align=center;verticalAlign=middle;resizable=0;points=[];" vertex="1" connectable="0" parent="EuYJvIRfVf0Awdc-5Psq-31">
          <mxGeometry x="0.9024" y="-4" relative="1" as="geometry">
            <mxPoint x="6" as="offset" />
          </mxGeometry>
        </mxCell>
        <mxCell id="EuYJvIRfVf0Awdc-5Psq-10" value="asset_price" style="rounded=0;whiteSpace=wrap;html=1;" vertex="1" parent="WIyWlLk6GJQsqaUBKTNV-1">
          <mxGeometry x="760" y="320" width="120" height="60" as="geometry" />
        </mxCell>
        <mxCell id="EuYJvIRfVf0Awdc-5Psq-20" style="edgeStyle=orthogonalEdgeStyle;rounded=0;orthogonalLoop=1;jettySize=auto;html=1;exitX=0.855;exitY=1;exitDx=0;exitDy=-4.35;exitPerimeter=0;entryX=0.75;entryY=0;entryDx=0;entryDy=0;" edge="1" parent="WIyWlLk6GJQsqaUBKTNV-1" source="EuYJvIRfVf0Awdc-5Psq-11" target="EuYJvIRfVf0Awdc-5Psq-3">
          <mxGeometry relative="1" as="geometry" />
        </mxCell>
        <mxCell id="EuYJvIRfVf0Awdc-5Psq-11" value="Database" style="shape=cylinder3;whiteSpace=wrap;html=1;boundedLbl=1;backgroundOutline=1;size=15;" vertex="1" parent="WIyWlLk6GJQsqaUBKTNV-1">
          <mxGeometry x="430" y="50" width="60" height="80" as="geometry" />
        </mxCell>
        <mxCell id="EuYJvIRfVf0Awdc-5Psq-19" style="edgeStyle=orthogonalEdgeStyle;rounded=0;orthogonalLoop=1;jettySize=auto;html=1;exitX=0.25;exitY=0;exitDx=0;exitDy=0;entryX=0.145;entryY=1;entryDx=0;entryDy=-4.35;entryPerimeter=0;" edge="1" parent="WIyWlLk6GJQsqaUBKTNV-1" source="EuYJvIRfVf0Awdc-5Psq-3" target="EuYJvIRfVf0Awdc-5Psq-11">
          <mxGeometry relative="1" as="geometry" />
        </mxCell>
        <mxCell id="EuYJvIRfVf0Awdc-5Psq-38" value="Record" style="whiteSpace=wrap;html=1;rounded=0;" vertex="1" parent="WIyWlLk6GJQsqaUBKTNV-1">
          <mxGeometry x="620" y="180" width="120" height="60" as="geometry" />
        </mxCell>
      </root>
    </mxGraphModel>
  </diagram>
</mxfile>
